<svg width="1440" height="701" viewBox="0 0 1440 701" fill="none" xmlns="http://www.w3.org/2000/svg">
<path fill-rule="evenodd" clip-rule="evenodd" d="M0 0H1440V701H0V0ZM240 112C240 161.706 199.706 202 150 202C100.294 202 60 161.706 60 112C60 62.2944 100.294 22 150 22C199.706 22 240 62.2944 240 112ZM150 431C199.706 431 240 390.706 240 341C240 291.294 199.706 251 150 251C100.294 251 60 291.294 60 341C60 390.706 100.294 431 150 431ZM235 570C235 619.706 194.706 660 145 660C95.2944 660 55 619.706 55 570C55 520.294 95.2944 480 145 480C194.706 480 235 520.294 235 570ZM379 431C428.706 431 469 390.706 469 341C469 291.294 428.706 251 379 251C329.294 251 289 291.294 289 341C289 390.706 329.294 431 379 431ZM464 570C464 619.706 423.706 660 374 660C324.294 660 284 619.706 284 570C284 520.294 324.294 480 374 480C423.706 480 464 520.294 464 570ZM379 202C428.706 202 469 161.706 469 112C469 62.2944 428.706 22 379 22C329.294 22 289 62.2944 289 112C289 161.706 329.294 202 379 202ZM698 112C698 161.706 657.706 202 608 202C558.294 202 518 161.706 518 112C518 62.2944 558.294 22 608 22C657.706 22 698 62.2944 698 112ZM608 431C657.706 431 698 390.706 698 341C698 291.294 657.706 251 608 251C558.294 251 518 291.294 518 341C518 390.706 558.294 431 608 431ZM693 570C693 619.706 652.706 660 603 660C553.294 660 513 619.706 513 570C513 520.294 553.294 480 603 480C652.706 480 693 520.294 693 570ZM837 202C886.706 202 927 161.706 927 112C927 62.2944 886.706 22 837 22C787.294 22 747 62.2944 747 112C747 161.706 787.294 202 837 202ZM927 341C927 390.706 886.706 431 837 431C787.294 431 747 390.706 747 341C747 291.294 787.294 251 837 251C886.706 251 927 291.294 927 341ZM832 660C881.706 660 922 619.706 922 570C922 520.294 881.706 480 832 480C782.294 480 742 520.294 742 570C742 619.706 782.294 660 832 660ZM1156 112C1156 161.706 1115.71 202 1066 202C1016.29 202 976 161.706 976 112C976 62.2944 1016.29 22 1066 22C1115.71 22 1156 62.2944 1156 112ZM1295 202C1344.71 202 1385 161.706 1385 112C1385 62.2944 1344.71 22 1295 22C1245.29 22 1205 62.2944 1205 112C1205 161.706 1245.29 202 1295 202ZM1385 341C1385 390.706 1344.71 431 1295 431C1245.29 431 1205 390.706 1205 341C1205 291.294 1245.29 251 1295 251C1344.71 251 1385 291.294 1385 341ZM1290 660C1339.71 660 1380 619.706 1380 570C1380 520.294 1339.71 480 1290 480C1240.29 480 1200 520.294 1200 570C1200 619.706 1240.29 660 1290 660ZM1156 341C1156 390.706 1115.71 431 1066 431C1016.29 431 976 390.706 976 341C976 291.294 1016.29 251 1066 251C1115.71 251 1156 291.294 1156 341ZM1061 660C1110.71 660 1151 619.706 1151 570C1151 520.294 1110.71 480 1061 480C1011.29 480 971 520.294 971 570C971 619.706 1011.29 660 1061 660Z" fill="#394243"/>
</svg>
