<svg width="1440" height="668" viewBox="0 0 1440 668" fill="none" xmlns="http://www.w3.org/2000/svg">
<path fill-rule="evenodd" clip-rule="evenodd" d="M1440 0H0V95.5889L47.3511 33.5361C66.8369 8 101.201 -0.99707 130.7 11.7139C160.199 24.4248 177.262 55.5811 172.085 87.2822L139.931 284.175L255.36 121.063C274.495 94.0264 309.96 84.1006 340.35 97.2783C370.739 110.457 387.731 143.131 381.07 175.578L359.708 279.629L488.835 135.322C508.646 113.182 540.276 105.959 567.734 117.307C595.192 128.653 612.496 156.097 610.899 185.764L607.295 252.679L660.908 149.681C675.06 122.491 705.255 107.672 735.42 113.11C765.585 118.549 788.704 142.98 792.47 173.4L806.638 287.851L907.109 63.4004C920.908 32.5732 954.752 15.9951 987.567 23.9893C1020.38 31.9824 1042.81 62.2686 1040.89 95.9883L1032.5 242.905L1099.33 143.063C1116.47 117.449 1148.35 106.063 1177.85 115.022C1197.17 120.892 1212.49 134.589 1220.75 152.005L1233.76 110.886C1243.73 79.3682 1274.39 59.1221 1307.29 62.3301C1340.2 65.5391 1366.37 91.3271 1370.06 124.178L1396.85 362.37L1440 304.833V0ZM1440 538.167L1403 587.5C1385.78 610.455 1356.3 620.579 1328.62 613.043C1300.93 605.506 1280.64 581.837 1277.44 553.322L1267.79 467.476L1224.24 605.114C1213.82 638.041 1180.95 658.45 1146.82 653.18C1112.69 647.91 1087.5 618.535 1087.5 584V412.43L1006.17 533.937C988.616 560.165 955.679 571.401 925.753 561.371C895.827 551.34 876.315 522.522 878.114 491.012L879.433 467.891L831.891 574.1C819.055 602.774 788.688 619.385 757.619 614.726C726.549 610.066 702.39 585.278 698.53 554.1L681.181 413.953L582.092 604.319C566.876 633.553 533.33 648.213 501.541 639.522C469.751 630.832 448.329 601.145 450.101 568.236L460.396 377.054L291.165 566.178C270.072 589.751 235.791 596.248 207.534 582.029C179.278 567.811 164.068 536.408 170.43 505.422L176.789 474.449L79.1396 612.437C61.251 637.713 29.0361 648.083 0 638.454V668H1440V538.167Z" fill="#394243"/>
<path fill-rule="evenodd" clip-rule="evenodd" d="M4.96191 639.63C8.06552 641.515 11.3481 643.178 14.794 644.59C44.9517 656.946 79.6469 646.855 98.4734 620.252L169.333 520.122C169.277 515.198 169.743 510.213 170.764 505.238L177.123 474.265L79.4734 612.252C62.5306 636.194 32.7355 646.762 4.96191 639.63ZM221.977 587.136C223.56 588.097 225.191 589.001 226.868 589.845C255.124 604.064 289.405 597.567 310.499 573.994L459.055 407.975L460.73 376.87L291.499 565.994C273.819 585.752 246.874 593.514 221.977 587.136ZM502.94 639.621C508.422 642.956 514.436 645.578 520.875 647.338C552.664 656.029 586.21 641.369 601.426 612.136L685.965 449.721L681.514 413.769L582.426 604.136C567.38 633.042 534.411 647.7 502.94 639.621ZM750.958 613.127C758.737 617.862 767.527 621.128 776.952 622.542C808.022 627.201 838.389 610.59 851.225 581.915L881.252 514.836C878.975 507.214 877.975 499.114 878.448 490.827L879.767 467.707L832.225 573.915C819.389 602.59 789.022 619.201 757.952 614.542C755.578 614.186 753.245 613.712 750.958 613.127ZM930.951 562.625C935.335 565.29 940.064 567.503 945.087 569.187C975.012 579.218 1007.95 567.981 1025.51 541.752L1087.83 448.632V412.245L1006.51 533.752C989.896 558.567 959.52 569.962 930.951 562.625ZM1140.45 651.625C1148.12 656.299 1156.8 659.552 1166.15 660.996C1200.28 666.266 1233.16 645.857 1243.57 612.93L1273.76 517.501L1268.12 467.292L1224.57 604.93C1214.16 637.857 1181.28 658.266 1147.15 652.996C1144.87 652.644 1142.64 652.186 1140.45 651.625ZM1329.95 613.124C1335.47 616.48 1341.51 619.106 1347.95 620.858C1375.64 628.395 1405.12 618.271 1422.33 595.316L1440 571.761V538.428L1403.33 587.316C1386.33 609.993 1357.35 620.148 1329.95 613.124ZM1412.92 341.199L1389.4 131.993C1386.11 102.751 1365.01 79.1044 1337.2 72C1355.25 82.9817 1367.91 101.889 1370.4 123.993L1397.18 362.186L1412.92 341.199ZM1225.1 139.118C1217.37 131.752 1207.89 126.092 1197.18 122.838C1196.2 122.539 1195.21 122.262 1194.22 122.008C1205.96 129.149 1215.27 139.564 1221.09 151.821L1225.1 139.118ZM1054.11 210.942L1060.22 103.804C1062.13 70.3695 1040.09 40.3111 1007.73 32.0124C1029.34 45.1625 1042.73 69.4331 1041.22 95.8045L1032.84 242.721L1054.11 210.942ZM821.08 256.15L811.804 181.216C808.247 152.486 787.427 129.097 759.713 122.006C777.604 132.895 790.119 151.534 792.804 173.216L806.972 287.667L821.08 256.15ZM629.302 210.858L630.233 193.58C631.83 163.913 614.526 136.469 587.068 125.122C583.992 123.851 580.863 122.813 577.704 122.002C599.489 135.24 612.634 159.554 611.233 185.58L607.629 252.495L629.302 210.858ZM386.83 249.507L400.404 183.394C407.065 150.947 390.073 118.273 359.684 105.094C356.244 103.603 352.739 102.407 349.201 101.499C374.168 116.658 387.414 146.118 381.404 175.394L360.041 279.445L386.83 249.507ZM166.663 246.688L191.419 95.0979C196.596 63.3969 179.533 32.2406 150.034 19.5298C146.644 18.0692 143.19 16.8952 139.702 16C163.797 30.6327 177.065 58.6459 172.419 87.0979L140.265 283.991L166.663 246.688Z" fill="#E73213"/>
</svg>
