<svg width="1455" height="608" viewBox="0 0 1455 608" fill="none" xmlns="http://www.w3.org/2000/svg">
<mask id="mask0_266_230" style="mask-type:alpha" maskUnits="userSpaceOnUse" x="14" y="0" width="1396" height="608">
<path d="M1213 386L1385.5 238L1143.39 51.7056L1213 386Z" fill="white"/>
<path d="M1125.89 371.205L1103.89 99.2051L1003.89 149.205L1125.89 371.205Z" fill="white"/>
<path d="M1380.5 131L1329.5 0L1252 89.5L1380.5 131Z" fill="white"/>
<path d="M774.391 425.706L954.891 236.206L1075.89 378.706L774.391 425.706Z" fill="white"/>
<path d="M832.696 199.67L1014.25 93.6119L839.689 22.5364L832.696 199.67Z" fill="white"/>
<path d="M623.891 368.706L822.391 350.706L776.891 143.206L623.891 368.706Z" fill="white"/>
<path d="M422.891 321.706L723.891 141.206L573.391 68.7061L422.891 321.706Z" fill="white"/>
<path d="M348.891 420.706L461.391 88.7061L300.891 133.206L348.891 420.706Z" fill="white"/>
<path d="M97.9283 343.677L251.349 21.4993L14.9495 168.477L97.9283 343.677Z" fill="white"/>
<path d="M274.891 534.206L233.891 186.706L73.3906 500.706L274.891 534.206Z" fill="white"/>
<path d="M338.598 581.381L568.913 537.28L568.184 291.532L338.598 581.381Z" fill="white"/>
<path d="M640.891 589.706L1035.89 474.206L617.391 433.206L640.891 589.706Z" fill="white"/>
<path d="M1076.14 439.662L1341.4 607.9L1410 378.5L1076.14 439.662Z" fill="white"/>
</mask>
<g mask="url(#mask0_266_230)">
<rect x="3" y="-15.5" width="1440" height="654" fill="#9DBEB7"/>
</g>
</svg>
