<svg width="1451" height="660" viewBox="0 0 1420 660" fill="none" xmlns="http://www.w3.org/2000/svg">
<path fill-rule="evenodd" clip-rule="evenodd" d="M3.95747 221.852C4.80181 222.371 5.65455 222.871 6.51507 223.351L6.65358 222.494C5.75169 222.298 4.8528 222.084 3.95747 221.852ZM3.95459 636.791C7.19714 638.779 10.6364 640.523 14.2545 641.991C44.4947 654.262 79.2021 644.008 97.9186 617.273L168.57 516.355C168.546 511.617 169.003 506.824 169.975 502.039L176.532 469.755L78.9186 609.186C61.9758 633.388 31.9292 644.083 3.95459 636.791ZM220.97 583.728C222.704 584.79 224.496 585.784 226.343 586.705C254.689 600.837 288.994 594.174 309.989 570.457L458.326 402.885L460.001 371.443L290.989 562.37C273.269 582.387 246.068 590.256 220.97 583.728ZM501.934 636.782C507.53 640.218 513.685 642.909 520.284 644.696C552.143 653.32 585.698 638.518 600.808 609.174L685.181 445.323L680.73 408.981L581.808 601.087C566.801 630.231 533.599 645.031 501.934 636.782ZM749.953 610.002C757.819 614.834 766.727 618.16 776.287 619.58C807.43 624.208 837.831 607.473 850.58 578.684L880.476 511.172C878.216 503.58 877.22 495.513 877.686 487.26L879.031 463.443L831.58 570.597C818.831 599.386 788.43 616.121 757.287 611.493C754.795 611.123 752.349 610.624 749.953 610.002ZM929.944 558.951C934.452 561.717 939.327 564.003 944.513 565.726C974.52 575.691 1007.48 564.303 1024.94 537.94L1087.07 444.101V407.32L1005.94 529.853C989.339 554.924 958.714 566.452 929.944 558.951ZM1139.44 648.917C1147.21 653.689 1156.01 657.004 1165.5 658.454C1199.68 663.678 1232.55 643.164 1242.88 610.166L1272.99 513.947L1267.35 463.194L1223.88 602.079C1213.55 635.077 1180.68 655.591 1146.5 650.367C1144.1 650.001 1141.75 649.515 1139.44 648.917ZM1328.94 609.997C1337.45 615.226 1347.17 618.69 1357.61 619.885C1390.04 623.602 1420.74 604.405 1431.59 573.616L1450.72 519.369L1402.79 583.964C1385.77 606.901 1356.54 617.182 1328.94 609.997ZM1412.2 336.33L1388.65 124.619C1385.4 95.4253 1364.4 71.7931 1336.69 64.6058C1354.62 75.6232 1367.19 94.4929 1369.65 116.532L1396.46 357.544L1412.2 336.33ZM1224.27 132.129C1216.51 124.76 1207 119.107 1196.25 115.872C1195.41 115.617 1194.56 115.379 1193.71 115.157C1205.32 122.285 1214.53 132.625 1220.31 144.78L1224.27 132.129ZM1053.32 204.72L1059.46 95.871C1061.35 62.5289 1039.42 32.566 1007.22 24.1851C1028.66 37.3599 1041.95 61.5239 1040.46 87.7841L1032.05 236.842L1053.32 204.72ZM820.342 250.215L811.056 174.391C807.542 145.705 786.819 122.327 759.199 115.154C776.984 126.079 789.408 144.684 792.056 166.304L806.234 282.074L820.342 250.215ZM628.52 204.564L629.476 186.624C631.059 156.895 613.665 129.416 586.117 118.128C583.182 116.925 580.201 115.935 577.192 115.151C598.813 128.411 611.856 152.619 610.476 178.537L606.847 246.653L628.52 204.564ZM385.898 243.938L399.674 176.111C406.275 143.612 389.165 110.942 358.693 97.8573C355.408 96.4466 352.065 95.3053 348.69 94.4258C373.445 109.597 386.593 138.88 380.674 168.024L359.109 274.2L385.898 243.938ZM165.787 240.993L190.679 86.9158C195.588 56.5253 180.067 26.4942 152.436 12.922C148.132 10.8077 143.691 9.17019 139.181 7.99707C163.185 22.7089 176.237 50.6141 171.679 78.8289L139.388 278.701L165.787 240.993Z" fill="#E73213"/>
<path fill-rule="evenodd" clip-rule="evenodd" d="M0.998047 0H1441V300.157L1397.8 356.979L1396.29 343.695C1401.28 339.211 1406.84 335.537 1412.75 332.712L1389.63 127.731C1386.33 98.4754 1365.21 74.8255 1337.38 67.7426C1354.9 78.3794 1367.36 96.4821 1370.38 117.733C1364.85 87.1579 1339.66 63.649 1308.38 60.5598C1275.55 57.3187 1244.91 77.4345 1234.84 108.845L1221.77 149.6C1213.54 132.227 1198.3 118.546 1179.06 112.634C1149.67 103.606 1117.83 114.807 1100.57 140.246L1033.54 239.051L1033.64 237.244L1054.35 206.384L1060.46 99.6856C1062.38 66.2266 1040.31 36.1435 1007.91 27.8661C1026.19 38.9665 1038.6 58.0232 1041.11 79.5828C1036.72 52.357 1016.47 29.632 988.765 22.7977C956.028 14.7214 922.185 31.1309 908.253 61.8362L807.61 283.643L807.454 282.399L821.316 251.518L812.041 176.812C808.474 148.071 787.629 124.679 759.89 117.61C776.625 127.77 788.668 144.707 792.38 164.576C786.4 137.205 764.518 115.781 736.553 110.683C706.491 105.202 676.347 119.855 662.087 146.882L608.323 248.78L608.433 246.773L629.549 206.318L630.473 189.21C632.074 159.559 614.793 132.124 587.358 120.762C584.245 119.473 581.078 118.423 577.881 117.606C594.97 127.964 606.753 145.133 610.388 164.601C605.594 142.664 590.401 123.903 568.974 114.954C541.63 103.534 510.058 110.57 490.149 132.519L360.927 274.985L361.203 273.659L387.116 244.781L400.637 179.108C407.314 146.675 390.352 114 359.984 100.797C356.505 99.2846 352.958 98.0749 349.377 97.1594C367.035 107.854 378.841 125.695 382.14 145.57C377.756 123.736 363.06 104.634 341.64 95.2296C311.356 81.9328 275.897 91.647 256.619 118.522L141.08 279.589L141.33 278.075L166.934 241.995L191.655 91.0431C196.844 59.356 179.809 28.2016 150.332 15.4691C146.903 13.988 143.408 12.8003 139.878 11.898C158.651 23.2707 170.864 42.7576 173.179 64.2527C169.579 41.0502 154.409 20.5923 131.978 10.8109C102.587 -2.00556 68.2463 6.7854 48.6288 32.1475L0.998047 93.7258V0ZM1411.05 570.874L1403.72 580.514C1386.42 603.275 1357.01 613.225 1329.44 605.646C1301.88 598.068 1281.69 574.485 1278.45 546.078L1268.8 461.416L1268.41 462.622L1274.01 512.259L1243.8 607.486C1233.36 640.394 1200.48 660.776 1166.36 655.494C1157.05 654.052 1148.4 650.814 1140.75 646.166C1142.91 646.717 1145.12 647.169 1147.36 647.516C1181.48 652.799 1214.36 632.417 1224.8 599.509L1251.07 516.68L1225.15 597.507C1214.62 630.344 1181.75 650.619 1147.68 645.29C1113.61 639.961 1088.5 610.615 1088.5 576.131V407.399L1088.07 408.023V443.64L1025.7 536.577C1008.11 562.771 975.184 573.968 945.28 563.92C940.299 562.247 935.608 560.053 931.256 557.413C959.773 564.709 990.085 553.348 1006.7 528.599L1046.26 469.653L1006.92 527.631C989.244 553.69 956.339 564.736 926.517 554.622C896.694 544.508 877.296 515.726 879.115 484.288L880.402 462.038L879.984 462.959L878.689 485.588C878.214 493.884 879.217 501.993 881.497 509.622L851.436 576.591C838.578 605.236 808.219 621.815 777.169 617.147C767.779 615.736 759.02 612.485 751.262 607.775C753.521 608.351 755.826 608.818 758.169 609.17C789.219 613.837 819.578 597.259 832.436 568.614L868.58 488.092L832.743 567.074C819.798 595.603 789.473 612.057 758.498 607.358C727.524 602.659 703.444 577.951 699.543 546.866L682.211 408.751L681.838 409.458L686.213 444.695L601.63 606.742C586.386 635.946 552.843 650.57 521.072 641.862C514.674 640.108 508.697 637.504 503.245 634.195C534.665 642.23 567.574 627.609 582.63 598.765L644.801 479.654L582.909 596.958C567.56 626.05 534.026 640.531 502.326 631.757C470.625 622.983 449.309 593.321 451.102 560.478L461.354 372.648L460.907 373.142L459.287 403.127L310.675 568.747C289.556 592.283 255.281 598.738 227.048 584.496C225.416 583.673 223.826 582.791 222.282 581.856C247.127 588.196 274.006 580.461 291.675 560.77L379.658 462.718L291.847 559.529C270.63 582.92 236.38 589.209 208.238 574.88C180.096 560.552 165.032 529.155 171.466 498.238L177.571 468.905L79.8772 605.095C61.9187 630.129 29.8678 640.322 0.998047 630.748V659H1441V565.429L1422.52 590C1405.28 612.915 1375.82 623.003 1348.16 615.458C1341.75 613.712 1335.75 611.104 1330.26 607.772C1330.46 607.822 1330.65 607.872 1330.85 607.92C1330.96 607.948 1331.07 607.975 1331.19 608.002C1359.81 614.895 1389.68 603.142 1405.94 578.597L1411.05 570.874ZM14.978 639.102C11.5765 637.705 8.33466 636.064 5.26722 634.205C32.9887 641.295 62.7187 630.76 79.661 606.885L177.32 469.269L171.013 499.904C169.978 504.928 169.511 509.963 169.575 514.934L98.661 614.863C79.8063 641.432 45.1142 651.481 14.978 639.102ZM1197.46 118.471C1208.17 121.73 1217.64 127.392 1225.37 134.757L1221.33 147.473C1215.5 135.19 1206.17 124.756 1194.4 117.612C1195.42 117.874 1196.44 118.16 1197.46 118.471Z" fill="#394243"/>
</svg>
